# xmcd
#
# Track frame offsets:
#	150
#	18124
#	33579
#	51896
#	69970
#	86197
#	102610
#	116245
#	131222
#	151582
#	168334
#	184939
#	195699
#	213078
#	237147
#	254964
#	270154
#	288065
#	306580
#
# Disc length: 4347
#
# Revision: 2
# Processed by: cddbd v1.5.1PL0 Copyright (c) Steve Scherf et al.
# Submitted via: CDmax 2.0
# Normalized: r1:TDELIM( - )
#
DISCID=1210f913
DTITLE=Various Artist - Country Stuff
DYEAR=2002
DGENRE=Country
TTITLE0=Toby Keith - Who's Your Daddy
TTITLE1=Toby Keith - Beer For My Horses
TTITLE2=Jeff Bates - The Love Song
TTITLE3=Daryl Worley - Have You Forgotten
TTITLE4=Lonestar - Frontporch Lookin In
TTITLE5=Rascal Flatts - These Days
TTITLE6=Trace Adkins - Every Light In The House Is On
TTITLE7=Mark Wills - Nineteen Somethin
TTITLE8=Brooks and Dunn - Only In America
TTITLE9=Diamond Rio - Beautiful Mess
TTITLE10=Diamond Rio - One More Day
TTITLE11=Diamond Rio - Unbelievable
TTITLE12=Joe Nichols - Brokenheartsville
TTITLE13=Keith Urban - Somebody Like You
TTITLE14=Kenny Chesney - Young
TTITLE15=Kenny Chesney - The Good Stuff
TTITLE16=Kenny Chesney - I Lost It
TTITLE17=Rascal Flatts - I'm Movin On
TTITLE18=Garth Brooks - Friends In Low Places
EXTD=
EXTT0=
EXTT1=
EXTT2=
EXTT3=
EXTT4=
EXTT5=
EXTT6=
EXTT7=
EXTT8=
EXTT9=
EXTT10=
EXTT11=
EXTT12=
EXTT13=
EXTT14=
EXTT15=
EXTT16=
EXTT17=
EXTT18=
PLAYORDER=
